<svg width="17" height="17" viewBox="0 0 17 17" fill="none" xmlns="http://www.w3.org/2000/svg">
<path d="M1.41667 16.5042C1.02315 16.5042 0.688815 16.3663 0.413667 16.0905C0.137889 15.8154 0 15.481 0 15.0875V13.2931L3.77778 9.94028V16.5042H1.41667ZM4.72222 16.5042V12.7264H12.2778V16.5042H4.72222ZM13.2222 16.5042V8.75972L9.18472 5.17083L12.0417 2.64444L16.5278 6.63472C16.6852 6.77639 16.8032 6.93757 16.8819 7.11828C16.9606 7.29961 17 7.49259 17 7.69722V15.0875C17 15.481 16.8621 15.8154 16.5863 16.0905C16.3112 16.3663 15.9769 16.5042 15.5833 16.5042H13.2222ZM0 12.0181V7.69722C0 7.49259 0.0393518 7.29583 0.118056 7.10694C0.196759 6.91806 0.314815 6.76065 0.472222 6.63472L7.55556 0.354167C7.68148 0.228241 7.82724 0.137574 7.99283 0.0821666C8.1578 0.0273888 8.32685 0 8.5 0C8.67315 0 8.84252 0.0273888 9.00811 0.0821666C9.17307 0.137574 9.31852 0.228241 9.44444 0.354167L11.3333 2.03056L0 12.0181Z" fill="#A8A9B3"/>
</svg>
