<svg width="15" height="15" viewBox="0 0 15 15" fill="none" xmlns="http://www.w3.org/2000/svg">
<path d="M13.3782 5.06811L9.89 1.62097L11.039 0.471929C11.3537 0.15731 11.7402 0 12.1988 0C12.6567 0 13.043 0.15731 13.3577 0.471929L14.5067 1.62097C14.8213 1.93559 14.9855 2.31533 14.9991 2.76017C15.0128 3.20447 14.8624 3.58393 14.5477 3.89855L13.3782 5.06811ZM0.820747 14.9786C0.588202 14.9786 0.393411 14.8998 0.236375 14.7423C0.0787918 14.5852 0 14.3904 0 14.1579V11.8393C0 11.7298 0.0205187 11.624 0.061556 11.5216C0.102593 11.4188 0.164149 11.3263 0.246224 11.2442L8.69991 2.79054L12.1881 6.27871L3.7344 14.7324C3.65232 14.8145 3.56013 14.876 3.45781 14.9171C3.35494 14.9581 3.24879 14.9786 3.13936 14.9786H0.820747Z" fill="white"/>
</svg>
