<svg width="19" height="23" viewBox="0 0 19 23" fill="none" xmlns="http://www.w3.org/2000/svg">
<path fill-rule="evenodd" clip-rule="evenodd" d="M8.69023 1.0166H8.74687C8.8762 1.20951 9.01575 1.74464 9.32768 2.22109C9.46635 2.43277 9.6583 2.41814 9.80179 2.64668C10.0191 2.99274 10.0431 2.67535 9.99389 3.31544C9.98615 3.41581 10.021 3.54442 10.02 3.66534C10.0191 3.7768 9.99053 3.89861 9.9879 3.9984C9.96177 4.01835 9.94893 4.025 9.9371 4.04644C9.89988 4.11414 9.92426 4.07113 9.94221 4.08872C10.0059 4.0049 10.0803 4.01126 10.2111 4.01421C10.2201 4.2222 10.2619 4.21437 10.1895 4.44394L10.0656 4.75467C9.93988 5.00346 9.83303 4.68431 9.84383 5.01056C9.98702 5.12394 10.0442 5.16651 10.1552 5.37717C10.1806 5.42536 10.2026 5.47532 10.2228 5.51745C10.2886 5.65478 10.2895 5.68036 10.4153 5.76092C10.6947 5.93979 10.7091 6.05835 10.8764 6.17764C11.2568 6.44876 11.2006 6.2823 11.3666 6.98433C11.4743 7.43993 11.7648 7.46107 11.5679 8.37182C11.5223 8.58233 11.3394 8.6892 11.3288 9.00452C11.3235 9.15751 11.2697 9.26351 11.2879 9.4236C11.3139 9.6517 11.3673 9.62509 11.2419 9.74778C11.2705 10.0236 11.2923 10.3002 11.3028 10.5846C11.3418 11.6361 11.6733 11.0537 11.6868 11.5113C11.6997 11.939 11.6887 11.6878 11.9369 12.14C12.112 12.4592 12.2079 12.2437 12.4046 12.5257C12.4717 12.622 12.5189 12.7 12.6174 12.7492C12.7641 12.8226 12.7915 12.8053 12.8774 12.9291C13.1003 13.2508 12.9411 13.2198 13.5488 13.5703C13.6494 13.6282 13.6069 13.6239 13.6704 13.6814C13.7164 13.7231 13.7351 13.7199 13.787 13.7723C14.0247 14.0121 14.0971 14.2448 14.2467 14.3985C14.443 14.6005 14.3486 14.5991 14.5181 14.773C14.932 15.1977 14.8125 14.9777 15.012 15.155C15.1073 15.2397 15.0987 15.322 15.1847 15.4221C15.2996 15.556 15.3549 15.833 15.4447 16.02C15.5047 16.1449 15.5626 16.1494 15.6133 16.2925C15.6614 16.4289 15.6535 16.5 15.7617 16.5779C15.9579 16.7194 16.0093 16.7924 16.1256 17.0721C16.4275 17.7975 16.2719 18.3931 16.3967 18.5416C16.4847 18.5589 16.481 18.6221 16.5753 18.6753C16.7061 18.7492 16.8607 18.752 17.0223 18.9253C17.0916 18.9996 17.1014 19.0645 17.1713 19.122C17.3034 19.2305 17.4993 19.2845 17.5986 19.3603L17.9673 19.6633V19.8953C17.8435 20.0245 17.6025 20.0539 17.3926 20.0617C17.2389 20.0675 17.2249 20.1247 17.0729 20.1352C16.883 20.1484 16.62 20.0413 16.5178 19.9214C16.4802 19.8772 16.4664 19.8647 16.4285 19.8299C16.1593 19.584 16.283 19.6394 16.173 19.5305C16.0971 19.4552 16.0049 19.4208 15.9904 19.3526C15.8519 19.3146 15.6954 19.4106 15.5549 19.346C15.4737 19.3086 15.4095 19.1383 15.4269 19.0222L15.3746 18.8762C15.2841 18.4689 15.3295 18.4717 14.8039 18.224C14.3909 18.0294 14.3105 17.775 14.0822 17.7057C14.0204 17.7901 13.9305 17.9091 13.7526 17.8953C13.5906 17.8828 13.5138 17.7667 13.3798 17.7336C13.2169 17.6936 13.1036 17.753 12.9013 17.6911C12.5308 17.5777 12.3308 17.4409 12.0421 17.2121C11.9867 17.1682 11.9675 17.1369 11.9129 17.0872C11.8294 17.0109 11.7165 16.9002 11.6531 16.8149C11.5315 16.6514 11.529 16.7238 11.3248 16.6399C11.1632 16.5733 11.1618 16.4922 11.0609 16.3704C11.0145 16.3144 10.9719 16.2824 10.9268 16.2271C10.8885 16.1803 10.8691 16.1365 10.8075 16.0951C10.5303 15.9093 10.2828 15.9983 9.91915 15.9939C9.57495 15.9896 9.23397 15.9761 8.88729 15.9763C8.7152 15.9763 8.54208 15.9746 8.37071 15.9909C8.21598 16.0055 8.04826 16.0387 7.89295 16.0277C7.86755 15.5791 8.02213 15.491 7.91572 14.8226C7.83004 14.8531 7.84391 14.8634 7.78698 14.9264C7.68611 15.0382 7.52292 15.0658 7.34192 15.1966L6.7614 15.5842C6.34422 15.8663 6.42377 15.9602 6.24219 16.0351C5.98849 16.1401 5.43104 16.0842 5.37805 16.1174C5.18347 16.3407 5.42199 16.5252 5.26755 16.8091C5.15837 17.01 5.04188 17.1261 4.85738 17.2321C4.73112 17.3045 4.5977 17.2564 4.49187 17.3036C4.39407 17.3471 4.38342 17.4427 4.33569 17.5599C4.00901 18.3611 3.68992 19.4831 3.86669 20.3614C3.91734 20.6127 4.02754 20.7583 4.00886 21.0568C3.90946 21.1648 3.76597 21.2405 3.59066 21.2928C3.34222 21.367 3.28339 21.3295 3.04123 21.3215C2.56873 21.3058 2.44057 21.5555 2.08061 21.6327C1.98252 21.7252 1.80487 21.6473 1.69861 21.6982C1.62416 21.7338 1.70707 21.7063 1.62329 21.7382L1.35485 21.8231H1V21.5499C1.01343 21.5042 1.12057 21.34 1.15049 21.3051C1.21676 21.2284 1.18378 21.2671 1.28581 21.2236C1.34565 21.1982 1.36916 21.1794 1.43557 21.1497L1.49338 21.0893C1.68153 20.9503 1.98909 20.795 2.12922 20.6869C2.34759 20.5187 2.24132 20.609 2.37036 20.4484C2.46568 20.3299 2.53574 20.3074 2.62639 20.1525C2.789 19.8743 2.87337 19.1023 2.83104 18.7196C2.81659 18.5887 2.77732 18.4009 2.77747 18.2429C2.78812 18.0673 2.76564 17.8865 2.74302 17.712C2.72696 17.5873 2.72798 17.5904 2.64609 17.5332C2.3092 17.2975 2.48626 17.3855 2.23621 17.1113C2.14965 17.0164 2.05609 16.9271 2.12133 16.7385C2.16702 16.6068 2.22935 16.4752 2.2765 16.338C2.32102 16.2084 2.41546 15.7837 2.45736 15.7081C2.55399 15.534 2.97482 14.5001 3.0243 14.3555C3.171 13.9276 3.21056 14.0028 3.56891 13.8111C3.6343 13.776 3.67766 13.741 3.73926 13.7057C4.06608 13.5176 3.94507 13.5575 4.06885 13.482C4.12403 13.4483 4.17964 13.4242 4.23322 13.393C4.66236 13.1428 4.60223 13.1108 4.84497 12.9219C4.96043 12.832 5.04962 12.7903 5.20187 12.725C5.25485 12.7022 5.57715 12.5747 5.59233 12.564C5.64882 12.5244 5.6443 12.4713 5.73392 12.4262C5.79859 12.3939 5.86135 12.3903 5.93653 12.3545C6.09067 12.2812 6.16585 12.2697 6.29065 12.1797C6.40086 12.1 6.52157 12.053 6.64302 11.9791C6.69396 11.948 6.77614 11.8762 6.80796 11.8648C6.90299 11.8308 6.93043 11.8738 7.01787 11.8241C7.07494 11.7918 7.2539 11.6336 7.27565 11.5313C7.29565 11.4377 7.25521 10.6084 7.23142 10.4946C7.19493 10.3202 7.11377 10.3883 7.09246 10.1069C7.05071 9.55576 7.1161 9.77617 6.58813 9.52427C6.13475 9.30785 6.24919 9.52649 5.99156 9.03438C5.82676 8.71951 5.70093 8.71167 5.724 8.22666L5.72662 7.98289C5.4379 8.25415 5.07589 8.4206 4.66645 8.4481C4.16417 8.48195 3.86698 8.32733 3.45345 8.14565C3.54278 8.04173 3.4282 8.13264 3.52089 8.09687C3.58307 8.07292 3.58248 8.12466 3.79633 8.12362C3.9188 8.12303 4.04185 8.12451 4.16417 8.12333C4.50939 8.11993 4.5758 8.06493 4.80629 8.02975C4.84833 7.99102 5.01751 7.95569 5.31061 7.72494C5.56329 7.52611 5.62211 7.34754 5.7129 7.32906L5.75655 7.24021C5.6713 7.13748 5.67568 7.17502 5.64809 6.98876C5.61452 6.76244 5.68517 6.87449 5.68751 6.71218L5.68035 6.56583L5.78735 6.52326L5.79932 6.31571C5.84895 6.29147 5.88121 6.27181 5.94091 6.24904C5.98791 6.23101 6.02615 6.2211 6.07345 6.19893C6.02294 6.13743 5.97725 6.02213 5.97419 5.91762C5.96893 5.74023 5.98703 5.64695 6.09666 5.63276C6.15212 5.57511 6.24175 5.52824 6.33882 5.54391C6.5658 5.58072 6.51573 6.00705 6.8792 6.05805C6.93788 5.95842 7.01845 5.92915 7.05728 5.80749C7.15756 5.49336 7.1399 5.27798 7.77647 5.25565C7.73253 5.13015 7.65531 5.05387 7.61138 4.93103C7.54686 4.75039 7.60072 4.7461 7.5019 4.50322C7.48001 4.4435 7.47563 4.36352 7.44702 4.30824C7.40615 4.229 7.43972 4.30765 7.39213 4.22472C7.28587 4.03949 7.41855 4.11429 7.42512 3.99012C7.42673 3.95848 7.39928 3.85944 7.39067 3.82573C7.3336 3.59927 7.26996 2.9308 7.34323 2.80441C7.38571 2.73123 7.31477 2.77824 7.39972 2.75799L7.41052 2.68053C7.71648 2.61667 7.53139 2.60558 7.70115 2.46204C7.98535 2.22168 7.82624 2.567 8.21014 1.95781C8.27276 1.85832 8.34429 1.7238 8.42895 1.64959C8.42311 1.57878 8.42778 1.61633 8.47245 1.53207C8.4961 1.48743 8.50369 1.46363 8.52266 1.41898C8.54981 1.35483 8.58572 1.26687 8.62732 1.20671L8.69038 1.01719L8.69023 1.0166Z" fill="#A8A9B3" stroke="#A8A9B3" stroke-width="0.66531" stroke-miterlimit="2.61313"/>
</svg>
